<svg width="1700" height="127" viewBox="0 0 1700 127" fill="none" xmlns="http://www.w3.org/2000/svg">
<path d="M71.7168 21.9516C71.7168 24.9497 70.6634 27.2186 68.5567 28.7581C66.5309 30.2167 64.019 30.9459 61.0209 30.9459C58.0228 30.9459 55.4704 30.3382 53.3636 29.1228C53.5256 28.0694 53.6067 27.0565 53.6067 26.0841C53.6067 23.086 52.6748 20.4931 50.8111 18.3053C49.0285 16.0364 45.8683 14.902 41.3307 14.902C34.9293 14.902 29.3788 17.9812 24.679 24.1394C19.9793 30.2977 17.6294 38.8869 17.6294 49.9069C17.6294 60.927 19.9793 69.0705 24.679 74.3374C29.4598 79.5233 35.9827 82.1163 44.2477 82.1163C49.1095 82.1163 53.6877 81.0224 57.9823 78.8346C62.3579 76.6467 65.8422 74.0538 68.4351 71.0557C69.4885 71.2988 70.3393 72.0686 70.9876 73.365C71.6358 74.6615 71.9599 75.958 71.9599 77.2545C71.9599 81.468 68.7998 85.6816 62.4794 89.8951C56.2401 94.1087 48.7854 96.2154 40.1152 96.2154C28.1228 96.2154 18.6018 92.2855 11.5522 84.4256C4.50261 76.5657 0.977812 65.6672 0.977812 51.7301C0.977812 37.793 4.86724 26.5703 12.6461 18.0622C20.425 9.55407 30.6347 5.3 43.2754 5.3C51.1353 5.3 57.8202 6.9206 63.3303 10.1618C68.9213 13.403 71.7168 17.3329 71.7168 21.9516ZM117.642 39.211C108.809 39.211 104.393 46.0175 104.393 59.6305C104.393 60.8459 104.434 62.1424 104.515 63.5199C105.406 79.8069 110.673 87.9504 120.316 87.9504C128.986 87.9504 133.321 81.2249 133.321 67.774C133.321 66.4775 133.28 65.0595 133.199 63.5199C132.308 47.314 127.122 39.211 117.642 39.211ZM88.5926 63.5199C88.5926 53.0671 91.4286 45.0451 97.1007 39.4541C102.773 33.782 110.025 30.9459 118.857 30.9459C127.77 30.9459 135.063 33.782 140.735 39.4541C146.407 45.1262 149.243 53.1886 149.243 63.6415C149.243 74.0133 146.407 82.0352 140.735 87.7073C135.063 93.3794 127.811 96.2154 118.979 96.2154C110.146 96.2154 102.854 93.3794 97.1007 87.7073C91.4286 82.0352 88.5926 73.9728 88.5926 63.5199ZM223.468 52.4593V84.4256C223.468 87.9099 224.684 90.2598 227.115 91.4752C224.603 94.6354 221.483 96.2154 217.756 96.2154C211.111 96.2154 207.789 92.164 207.789 84.061V54.4041C207.789 47.2734 204.71 43.7081 198.552 43.7081C195.391 43.7081 192.353 45.0856 189.436 47.8407C186.519 50.5957 184.493 54.4446 183.358 59.3874V84.4256C183.358 87.9099 184.574 90.2598 187.005 91.4752C184.493 94.6354 181.373 96.2154 177.646 96.2154C171.001 96.2154 167.679 92.164 167.679 84.061V42.7358C167.679 39.1705 166.464 36.7801 164.033 35.5646C166.383 32.4855 169.462 30.9459 173.27 30.9459C179.996 30.9459 183.358 34.9974 183.358 43.1004V44.4374C185.465 40.2238 188.463 36.9421 192.353 34.5923C196.242 32.1614 200.739 30.9459 205.844 30.9459C211.03 30.9459 215.244 32.7691 218.485 36.4154C221.807 40.0618 223.468 45.4098 223.468 52.4593ZM301.271 52.4593V84.4256C301.271 87.9099 302.487 90.2598 304.917 91.4752C302.406 94.6354 299.286 96.2154 295.559 96.2154C288.914 96.2154 285.592 92.164 285.592 84.061V54.4041C285.592 47.2734 282.513 43.7081 276.354 43.7081C273.194 43.7081 270.156 45.0856 267.239 47.8407C264.322 50.5957 262.296 54.4446 261.161 59.3874V84.4256C261.161 87.9099 262.377 90.2598 264.808 91.4752C262.296 94.6354 259.176 96.2154 255.449 96.2154C248.804 96.2154 245.482 92.164 245.482 84.061V42.7358C245.482 39.1705 244.267 36.7801 241.836 35.5646C244.186 32.4855 247.265 30.9459 251.073 30.9459C257.799 30.9459 261.161 34.9974 261.161 43.1004V44.4374C263.268 40.2238 266.266 36.9421 270.156 34.5923C274.045 32.1614 278.542 30.9459 283.647 30.9459C288.833 30.9459 293.047 32.7691 296.288 36.4154C299.61 40.0618 301.271 45.4098 301.271 52.4593ZM351.726 55.8626C353.347 55.7005 354.522 55.2144 355.251 54.4041C355.98 53.5938 356.345 51.9732 356.345 49.5423C356.345 47.1114 355.575 44.8831 354.036 42.8573C352.496 40.8316 350.308 39.8187 347.472 39.8187C344.717 39.8187 342.165 41.3583 339.815 44.4374C337.546 47.4355 336.047 51.7706 335.318 57.4427L351.726 55.8626ZM351.726 84.9118C358.371 84.9118 363.962 82.5214 368.5 77.7407C370.039 78.5509 370.809 80.0095 370.809 82.1163C370.809 85.5195 368.621 88.7202 364.246 91.7183C359.951 94.7164 354.846 96.2154 348.931 96.2154C339.775 96.2154 332.522 93.582 327.174 88.315C321.826 83.0481 319.152 75.5528 319.152 65.8293C319.152 56.1057 322.07 47.8812 327.904 41.1557C333.819 34.3492 341.03 30.9459 349.539 30.9459C356.102 30.9459 361.491 33.1337 365.704 37.5094C369.999 41.8039 372.146 46.7467 372.146 52.3378C372.146 56.5514 371.093 59.6305 368.986 61.5752C366.879 63.4389 363.354 64.4112 358.411 64.4923L334.953 65.2215C335.277 78.3484 340.868 84.9118 351.726 84.9118ZM435.665 44.3159C435.665 46.9088 434.855 48.9346 433.234 50.3931C431.614 51.8516 429.548 52.5809 427.036 52.5809C424.605 52.5809 422.417 51.8921 420.472 50.5146C420.715 49.5423 420.837 48.2458 420.837 46.6252C420.837 45.0046 420.27 43.5461 419.135 42.2496C418.001 40.9531 416.34 40.3049 414.152 40.3049C410.263 40.3049 406.859 42.4927 403.942 46.8683C401.025 51.2439 399.567 56.8755 399.567 63.763C399.567 70.6505 401.106 75.877 404.185 79.4423C407.345 83.0076 411.316 84.7902 416.097 84.7902C422.903 84.7902 428.535 82.3999 432.991 77.6191C434.531 78.3484 435.301 79.8474 435.301 82.1163C435.301 85.6816 433.113 88.9228 428.737 91.8398C424.443 94.7569 419.338 96.2154 413.423 96.2154C404.59 96.2154 397.541 93.5415 392.274 88.1935C387.007 82.8455 384.374 75.3908 384.374 65.8293C384.374 56.2678 387.412 48.0837 393.489 41.2772C399.648 34.3897 407.345 30.9459 416.583 30.9459C421.931 30.9459 426.428 32.2019 430.074 34.7138C433.802 37.1447 435.665 40.3454 435.665 44.3159ZM469.18 42.3711V77.2545C469.18 80.0095 469.667 82.0352 470.639 83.3317C471.692 84.5472 473.394 85.1549 475.744 85.1549C480.525 85.1549 484.819 83.1291 488.628 79.0776C489.519 79.1587 490.289 79.6043 490.937 80.4146C491.585 81.2249 491.909 82.2783 491.909 83.5748C491.909 86.735 489.965 89.652 486.075 92.326C482.267 94.919 477.526 96.2154 471.854 96.2154C466.182 96.2154 461.685 94.7974 458.363 91.9614C455.122 89.0443 453.501 84.6687 453.501 78.8346V42.3711C450.341 42.2901 447.991 41.6419 446.452 40.4264C444.993 39.211 444.264 37.7119 444.264 35.9293C444.264 34.1466 444.993 32.7286 446.452 31.6752C448.882 31.9993 450.989 32.1614 452.772 32.1614H453.501V26.2057C453.501 22.6404 452.245 20.25 449.733 19.0346C452.245 15.9554 455.324 14.4159 458.971 14.4159C465.777 14.4159 469.18 18.4673 469.18 26.5703V32.1614H488.263C488.749 32.8907 488.992 33.6604 488.992 34.4707C488.992 36.6585 487.574 38.5222 484.738 40.0618C481.983 41.6014 477.202 42.3711 470.396 42.3711H469.18ZM514.993 2.13984C517.748 2.13984 520.017 2.99065 521.8 4.69228C523.582 6.31287 524.474 8.50068 524.474 11.2557C524.474 13.9297 523.299 16.4011 520.949 18.6699C518.68 20.8577 516.087 21.9516 513.17 21.9516C510.253 21.9516 507.863 21.1008 505.999 19.3992C504.216 17.6976 503.325 15.4287 503.325 12.5927C503.325 9.75664 504.581 7.32574 507.093 5.3C509.605 3.19322 512.238 2.13984 514.993 2.13984ZM522.164 43.1004V84.4256C522.164 87.9099 523.38 90.2598 525.811 91.4752C523.299 94.6354 520.179 96.2154 516.452 96.2154C509.807 96.2154 506.485 92.164 506.485 84.061V42.7358C506.485 39.1705 505.27 36.7801 502.839 35.5646C505.189 32.4855 508.268 30.9459 512.076 30.9459C518.802 30.9459 522.164 34.9974 522.164 43.1004ZM600.076 52.4593V84.4256C600.076 87.9099 601.292 90.2598 603.723 91.4752C601.211 94.6354 598.091 96.2154 594.364 96.2154C587.719 96.2154 584.397 92.164 584.397 84.061V54.4041C584.397 47.2734 581.318 43.7081 575.16 43.7081C572 43.7081 568.961 45.0856 566.044 47.8407C563.127 50.5957 561.101 54.4446 559.967 59.3874V84.4256C559.967 87.9099 561.182 90.2598 563.613 91.4752C561.101 94.6354 557.981 96.2154 554.254 96.2154C547.61 96.2154 544.287 92.164 544.287 84.061V42.7358C544.287 39.1705 543.072 36.7801 540.641 35.5646C542.991 32.4855 546.07 30.9459 549.878 30.9459C556.604 30.9459 559.967 34.9974 559.967 43.1004V44.4374C562.073 40.2238 565.072 36.9421 568.961 34.5923C572.85 32.1614 577.348 30.9459 582.452 30.9459C587.638 30.9459 591.852 32.7691 595.093 36.4154C598.415 40.0618 600.076 45.4098 600.076 52.4593ZM635.217 55.3764C635.541 61.2106 636.676 65.5457 638.62 68.3817C640.565 71.2178 642.955 72.6358 645.792 72.6358C648.709 72.6358 650.937 71.3393 652.476 68.7463C654.016 66.0724 654.786 62.507 654.786 58.0504C654.786 51.0008 653.732 45.9364 651.626 42.8573C649.519 39.6972 647.007 38.1171 644.09 38.1171C641.173 38.1171 638.944 39.4136 637.405 42.0065C635.865 44.5995 635.096 48.0027 635.096 52.2163C635.096 53.1886 635.136 54.242 635.217 55.3764ZM659.405 102.414H641.537C635.46 102.414 630.315 101.199 626.101 98.7679C621.969 96.337 619.902 92.5691 619.902 87.4642C619.902 82.2783 622.982 78.1863 629.14 75.1882C622.495 70.4075 619.173 64.0871 619.173 56.2272C619.173 48.2863 621.685 42.0875 626.709 37.6309C631.814 33.1743 637.932 30.9459 645.062 30.9459C650.41 30.9459 655.231 32.2424 659.526 34.8354C659.85 30.2167 661.187 26.5703 663.537 23.8963C665.887 21.2224 668.561 19.8854 671.559 19.8854C674.557 19.8854 676.866 20.7362 678.487 22.4378C680.189 24.1394 681.039 26.4488 681.039 29.3659C681.039 32.2829 679.905 34.3897 677.636 35.6862C675.854 34.3087 673.99 33.6199 672.045 33.6199C668.318 33.6199 665.927 35.5241 664.874 39.3325C668.844 43.7081 670.83 49.3397 670.83 56.2272C670.83 63.1148 668.277 68.7869 663.172 73.2435C658.149 77.7001 652.112 79.9285 645.062 79.9285C641.821 79.9285 638.823 79.4423 636.068 78.4699C633.556 79.3612 632.3 80.8198 632.3 82.8455C632.3 84.7902 633.11 86.1272 634.731 86.8565C636.352 87.5047 639.026 87.8289 642.753 87.8289H658.311C664.307 87.8289 668.804 89.2064 671.802 91.9614C674.8 94.7164 676.299 98.5653 676.299 103.508C676.299 110.234 673.139 115.744 666.819 120.038C660.579 124.414 652.598 126.602 642.874 126.602C633.232 126.602 626.142 125.062 621.604 121.983C617.066 118.985 614.798 115.42 614.798 111.287C614.798 108.451 615.77 106.223 617.715 104.602C619.659 102.981 622.009 102.09 624.764 101.928C624.926 106.304 626.587 109.545 629.748 111.652C632.908 113.839 637.851 114.933 644.576 114.933C651.383 114.933 656.487 114.123 659.891 112.502C663.375 110.963 665.117 108.897 665.117 106.304C665.117 103.711 663.213 102.414 659.405 102.414ZM755.53 16.3606H745.199V52.824H755.53C761.526 52.824 766.145 51.1629 769.386 47.8407C772.628 44.5184 774.248 40.1023 774.248 34.5923C774.248 29.0823 772.628 24.6661 769.386 21.3439C766.145 18.0217 761.526 16.3606 755.53 16.3606ZM736.448 6.3939H757.961C758.123 6.3939 758.285 6.3939 758.447 6.3939C767.847 6.3939 775.788 8.86531 782.27 13.8081C788.833 18.6699 792.115 25.598 792.115 34.5923C792.115 43.5056 788.833 50.4336 782.27 55.3764C775.788 60.2382 767.685 62.6691 757.961 62.6691H745.199V84.4256C745.199 87.9909 746.414 90.3408 748.845 91.4752C746.333 94.6354 743.214 96.2154 739.486 96.2154C732.842 96.2154 729.52 92.164 729.52 84.061V18.4268C729.52 14.9425 728.264 12.5927 725.752 11.3772C728.426 8.05502 731.991 6.3939 736.448 6.3939ZM835.987 55.8626C837.608 55.7005 838.783 55.2144 839.512 54.4041C840.241 53.5938 840.606 51.9732 840.606 49.5423C840.606 47.1114 839.836 44.8831 838.296 42.8573C836.757 40.8316 834.569 39.8187 831.733 39.8187C828.978 39.8187 826.426 41.3583 824.076 44.4374C821.807 47.4355 820.308 51.7706 819.579 57.4427L835.987 55.8626ZM835.987 84.9118C842.632 84.9118 848.223 82.5214 852.76 77.7407C854.3 78.5509 855.07 80.0095 855.07 82.1163C855.07 85.5195 852.882 88.7202 848.506 91.7183C844.212 94.7164 839.107 96.2154 833.192 96.2154C824.035 96.2154 816.783 93.582 811.435 88.315C806.087 83.0481 803.413 75.5528 803.413 65.8293C803.413 56.1057 806.33 47.8812 812.164 41.1557C818.08 34.3492 825.291 30.9459 833.799 30.9459C840.363 30.9459 845.751 33.1337 849.965 37.5094C854.259 41.8039 856.407 46.7467 856.407 52.3378C856.407 56.5514 855.353 59.6305 853.246 61.5752C851.14 63.4389 847.615 64.4112 842.672 64.4923L819.214 65.2215C819.538 78.3484 825.129 84.9118 835.987 84.9118ZM888.932 42.3711V77.2545C888.932 80.0095 889.418 82.0352 890.391 83.3317C891.444 84.5472 893.146 85.1549 895.496 85.1549C900.276 85.1549 904.571 83.1291 908.379 79.0776C909.271 79.1587 910.04 79.6043 910.689 80.4146C911.337 81.2249 911.661 82.2783 911.661 83.5748C911.661 86.735 909.716 89.652 905.827 92.326C902.019 94.919 897.278 96.2154 891.606 96.2154C885.934 96.2154 881.437 94.7974 878.115 91.9614C874.874 89.0443 873.253 84.6687 873.253 78.8346V42.3711C870.093 42.2901 867.743 41.6419 866.203 40.4264C864.745 39.211 864.016 37.7119 864.016 35.9293C864.016 34.1466 864.745 32.7286 866.203 31.6752C868.634 31.9993 870.741 32.1614 872.524 32.1614H873.253V26.2057C873.253 22.6404 871.997 20.25 869.485 19.0346C871.997 15.9554 875.076 14.4159 878.722 14.4159C885.529 14.4159 888.932 18.4673 888.932 26.5703V32.1614H908.015C908.501 32.8907 908.744 33.6604 908.744 34.4707C908.744 36.6585 907.326 38.5222 904.49 40.0618C901.735 41.6014 896.954 42.3711 890.148 42.3711H888.932ZM972.059 44.1943C972.059 46.4631 971.289 48.2863 969.75 49.6638C968.291 50.9603 966.347 51.6085 963.916 51.6085C961.485 51.6085 959.216 50.7982 957.109 49.1776C957.514 47.9622 957.676 46.7062 957.595 45.4098C957.595 44.0323 956.826 42.7358 955.286 41.5203C953.828 40.3049 951.68 39.6972 948.844 39.6972C946.089 39.6972 943.861 40.3049 942.159 41.5203C940.539 42.7358 939.728 44.3564 939.728 46.3821C939.728 48.3268 940.903 50.1905 943.253 51.9732C945.684 53.6748 948.561 55.2549 951.883 56.7134C955.286 58.172 958.649 59.752 961.971 61.4537C965.374 63.0743 968.251 65.2215 970.601 67.8955C973.032 70.5695 974.247 73.5676 974.247 76.8898C974.247 82.3999 971.654 87.0186 966.468 90.7459C961.282 94.3923 954.921 96.2154 947.386 96.2154C939.931 96.2154 933.732 94.8379 928.789 92.0829C923.765 89.1659 921.254 85.479 921.254 81.0224C921.254 78.5104 922.145 76.4847 923.928 74.9451C925.71 73.3245 928.101 72.5142 931.099 72.5142C934.178 72.5142 936.528 73.6081 938.148 75.7959C936.852 77.0924 936.204 78.7535 936.204 80.7793C936.204 82.724 937.135 84.3041 938.999 85.5195C940.944 86.735 943.618 87.3427 947.021 87.3427C950.505 87.3427 953.26 86.6539 955.286 85.2764C957.393 83.8179 958.446 82.0352 958.446 79.9285C958.446 77.7407 957.271 75.7959 954.921 74.0943C952.572 72.3117 949.695 70.6911 946.292 69.2325C942.97 67.774 939.607 66.2344 936.204 64.6138C932.8 62.9122 929.924 60.7649 927.574 58.172C925.224 55.579 924.049 52.6619 924.049 49.4207C924.049 44.3159 926.439 39.9808 931.22 36.4154C936.001 32.7691 941.714 30.9459 948.358 30.9459C955.084 30.9459 960.715 32.2019 965.253 34.7138C969.79 37.1447 972.059 40.3049 972.059 44.1943ZM1048.5 66.5585H1071.35L1060.66 30.9459L1048.5 66.5585ZM1090.19 96.2154C1087.36 96.2154 1085.09 95.5267 1083.39 94.1492C1081.69 92.7717 1080.15 90.3003 1078.77 86.735L1075.12 76.6467H1044.86L1040.97 86.978C1038.78 93.1363 1035.38 96.2154 1030.76 96.2154C1028.65 96.2154 1026.71 95.7293 1024.92 94.7569C1023.14 93.7035 1021.93 92.407 1021.28 90.8675C1023.38 89.9762 1025.29 87.3427 1026.99 82.9671L1053.24 15.7528C1052.11 12.9978 1050.77 11.0126 1049.23 9.79716C1051.42 6.79905 1054.34 5.3 1057.98 5.3C1061.71 5.3 1064.35 6.23184 1065.89 8.09553C1067.51 9.87819 1069.13 13.0383 1070.75 17.576L1093.6 81.387C1095.38 86.1678 1097.73 89.2874 1100.65 90.7459C1098.78 94.3923 1095.3 96.2154 1090.19 96.2154ZM1171.28 52.4593V84.4256C1171.28 87.9099 1172.5 90.2598 1174.93 91.4752C1172.41 94.6354 1169.29 96.2154 1165.57 96.2154C1158.92 96.2154 1155.6 92.164 1155.6 84.061V54.4041C1155.6 47.2734 1152.52 43.7081 1146.36 43.7081C1143.2 43.7081 1140.16 45.0856 1137.25 47.8407C1134.33 50.5957 1132.3 54.4446 1131.17 59.3874V84.4256C1131.17 87.9099 1132.39 90.2598 1134.82 91.4752C1132.3 94.6354 1129.18 96.2154 1125.46 96.2154C1118.81 96.2154 1115.49 92.164 1115.49 84.061V42.7358C1115.49 39.1705 1114.28 36.7801 1111.84 35.5646C1114.19 32.4855 1117.27 30.9459 1121.08 30.9459C1127.81 30.9459 1131.17 34.9974 1131.17 43.1004V44.4374C1133.28 40.2238 1136.27 36.9421 1140.16 34.5923C1144.05 32.1614 1148.55 30.9459 1153.66 30.9459C1158.84 30.9459 1163.06 32.7691 1166.3 36.4154C1169.62 40.0618 1171.28 45.4098 1171.28 52.4593ZM1229.76 44.1943C1227.25 41.5203 1223.84 40.1833 1219.55 40.1833C1215.33 40.1833 1211.69 42.2901 1208.61 46.5037C1205.53 50.7172 1203.99 56.5108 1203.99 63.8846C1203.99 71.1772 1205.29 76.6467 1207.88 80.2931C1210.47 83.9394 1214 85.7626 1218.45 85.7626C1223.88 85.7626 1227.65 83.2102 1229.76 78.1053V44.1943ZM1245.44 12.9573V84.4256C1245.44 87.9099 1246.65 90.2598 1249.08 91.4752C1246.57 94.6354 1243.45 96.2154 1239.72 96.2154C1234.46 96.2154 1231.3 93.744 1230.24 88.8012C1226.43 93.744 1220.97 96.2154 1213.83 96.2154C1206.78 96.2154 1200.67 93.4604 1195.48 87.9504C1190.3 82.4404 1187.7 74.8236 1187.7 65.1C1187.7 55.3764 1190.58 47.2734 1196.33 40.7911C1202.09 34.2276 1209.54 30.9459 1218.7 30.9459C1222.75 30.9459 1226.43 31.5537 1229.76 32.7691V12.5927C1229.76 9.1084 1228.5 6.71802 1225.99 5.42154C1228.5 2.34241 1231.62 0.802847 1235.35 0.802847C1242.07 0.802847 1245.44 4.85434 1245.44 12.9573ZM1379.4 17.3329V84.4256C1379.4 87.9099 1380.58 90.2598 1382.93 91.4752C1380.58 94.6354 1377.5 96.2154 1373.69 96.2154C1367.04 96.2154 1363.72 92.164 1363.72 84.061V55.498H1321.91V84.4256C1321.91 87.9909 1323.13 90.3408 1325.56 91.4752C1323.04 94.6354 1319.93 96.2154 1316.2 96.2154C1309.55 96.2154 1306.23 92.164 1306.23 84.061V16.9683C1306.23 13.403 1305.02 11.0936 1302.58 10.0402C1304.93 6.88008 1308.01 5.3 1311.82 5.3C1318.55 5.3 1321.91 9.31098 1321.91 17.3329V44.9236H1363.72V16.9683C1363.72 13.403 1362.51 11.0936 1360.08 10.0402C1362.43 6.88008 1365.5 5.3 1369.31 5.3C1376.04 5.3 1379.4 9.31098 1379.4 17.3329ZM1433.07 55.8626C1434.69 55.7005 1435.86 55.2144 1436.59 54.4041C1437.32 53.5938 1437.68 51.9732 1437.68 49.5423C1437.68 47.1114 1436.91 44.8831 1435.38 42.8573C1433.84 40.8316 1431.65 39.8187 1428.81 39.8187C1426.06 39.8187 1423.5 41.3583 1421.15 44.4374C1418.89 47.4355 1417.39 51.7706 1416.66 57.4427L1433.07 55.8626ZM1433.07 84.9118C1439.71 84.9118 1445.3 82.5214 1449.84 77.7407C1451.38 78.5509 1452.15 80.0095 1452.15 82.1163C1452.15 85.5195 1449.96 88.7202 1445.59 91.7183C1441.29 94.7164 1436.19 96.2154 1430.27 96.2154C1421.11 96.2154 1413.86 93.582 1408.51 88.315C1403.17 83.0481 1400.49 75.5528 1400.49 65.8293C1400.49 56.1057 1403.41 47.8812 1409.24 41.1557C1415.16 34.3492 1422.37 30.9459 1430.88 30.9459C1437.44 30.9459 1442.83 33.1337 1447.04 37.5094C1451.34 41.8039 1453.49 46.7467 1453.49 52.3378C1453.49 56.5514 1452.43 59.6305 1450.33 61.5752C1448.22 63.4389 1444.69 64.4112 1439.75 64.4923L1416.29 65.2215C1416.62 78.3484 1422.21 84.9118 1433.07 84.9118ZM1482.24 78.8346C1482.24 83.4533 1484.88 85.7626 1490.14 85.7626C1494.52 85.7626 1498.37 83.7369 1501.69 79.6854V66.8016C1494.88 67.2068 1489.94 68.5033 1486.86 70.6911C1483.78 72.8789 1482.24 75.5934 1482.24 78.8346ZM1517.37 51.8516V81.2654C1517.37 86.0462 1519.48 88.9633 1523.69 90.0167C1521.02 94.1492 1517.21 96.2154 1512.26 96.2154C1506.51 96.2154 1503.11 93.3389 1502.05 87.5858C1497.19 93.3389 1490.91 96.2154 1483.22 96.2154C1477.87 96.2154 1473.53 94.8379 1470.21 92.0829C1466.89 89.3279 1465.23 85.479 1465.23 80.5362C1465.23 74.4589 1468.39 69.5566 1474.71 65.8293C1481.03 62.1019 1490.02 60.1572 1501.69 59.9951V50.0285C1501.69 42.9789 1498.89 39.4541 1493.3 39.4541C1490.79 39.4541 1488.81 40.1023 1487.35 41.3988C1485.89 42.6953 1485.16 44.3159 1485.16 46.2606C1485.16 48.1243 1485.77 49.7043 1486.98 51.0008C1484.47 53.3507 1481.55 54.5256 1478.23 54.5256C1474.91 54.5256 1472.4 53.7153 1470.7 52.0947C1468.99 50.4741 1468.14 48.3673 1468.14 45.7744C1468.14 41.5608 1470.7 38.036 1475.8 35.2C1480.91 32.364 1486.94 30.9459 1493.91 30.9459C1500.96 30.9459 1506.63 32.6881 1510.93 36.1724C1515.22 39.5756 1517.37 44.802 1517.37 51.8516ZM1539.46 84.061V42.7358C1539.46 39.1705 1538.24 36.7801 1535.81 35.5646C1538.16 32.4855 1541.24 30.9459 1545.05 30.9459C1551.78 30.9459 1555.14 34.9569 1555.14 42.9789C1558.46 34.9569 1563.93 30.9459 1571.55 30.9459C1575.35 30.9459 1578.43 31.9993 1580.78 34.1061C1583.13 36.2129 1584.31 38.9679 1584.31 42.3711C1584.31 45.6934 1583.46 48.2863 1581.76 50.15C1580.05 52.0137 1577.62 52.9455 1574.46 52.9455C1573.9 52.9455 1572.88 52.8645 1571.42 52.7024C1571.67 51.487 1571.79 50.1905 1571.79 48.813C1571.79 47.4355 1571.22 46.1795 1570.09 45.0451C1568.95 43.9107 1567.37 43.3435 1565.35 43.3435C1563.4 43.3435 1561.42 44.3564 1559.39 46.3821C1557.45 48.3268 1556.03 51.406 1555.14 55.6195V84.4256C1555.14 87.9099 1556.35 90.2598 1558.78 91.4752C1556.27 94.6354 1553.15 96.2154 1549.43 96.2154C1542.78 96.2154 1539.46 92.164 1539.46 84.061ZM1614.67 42.3711V77.2545C1614.67 80.0095 1615.16 82.0352 1616.13 83.3317C1617.18 84.5472 1618.89 85.1549 1621.24 85.1549C1626.02 85.1549 1630.31 83.1291 1634.12 79.0776C1635.01 79.1587 1635.78 79.6043 1636.43 80.4146C1637.08 81.2249 1637.4 82.2783 1637.4 83.5748C1637.4 86.735 1635.46 89.652 1631.57 92.326C1627.76 94.919 1623.02 96.2154 1617.35 96.2154C1611.67 96.2154 1607.18 94.7974 1603.86 91.9614C1600.61 89.0443 1598.99 84.6687 1598.99 78.8346V42.3711C1595.83 42.2901 1593.48 41.6419 1591.94 40.4264C1590.49 39.211 1589.76 37.7119 1589.76 35.9293C1589.76 34.1466 1590.49 32.7286 1591.94 31.6752C1594.37 31.9993 1596.48 32.1614 1598.26 32.1614H1598.99V26.2057C1598.99 22.6404 1597.74 20.25 1595.23 19.0346C1597.74 15.9554 1600.82 14.4159 1604.46 14.4159C1611.27 14.4159 1614.67 18.4673 1614.67 26.5703V32.1614H1633.76C1634.24 32.8907 1634.48 33.6604 1634.48 34.4707C1634.48 36.6585 1633.07 38.5222 1630.23 40.0618C1627.48 41.6014 1622.69 42.3711 1615.89 42.3711H1614.67ZM1697.8 44.1943C1697.8 46.4631 1697.03 48.2863 1695.49 49.6638C1694.03 50.9603 1692.09 51.6085 1689.66 51.6085C1687.23 51.6085 1684.96 50.7982 1682.85 49.1776C1683.26 47.9622 1683.42 46.7062 1683.34 45.4098C1683.34 44.0323 1682.57 42.7358 1681.03 41.5203C1679.57 40.3049 1677.42 39.6972 1674.58 39.6972C1671.83 39.6972 1669.6 40.3049 1667.9 41.5203C1666.28 42.7358 1665.47 44.3564 1665.47 46.3821C1665.47 48.3268 1666.64 50.1905 1668.99 51.9732C1671.42 53.6748 1674.3 55.2549 1677.62 56.7134C1681.03 58.172 1684.39 59.752 1687.71 61.4537C1691.12 63.0743 1693.99 65.2215 1696.34 67.8955C1698.77 70.5695 1699.99 73.5676 1699.99 76.8898C1699.99 82.3999 1697.39 87.0186 1692.21 90.7459C1687.02 94.3923 1680.66 96.2154 1673.13 96.2154C1665.67 96.2154 1659.47 94.8379 1654.53 92.0829C1649.51 89.1659 1646.99 85.479 1646.99 81.0224C1646.99 78.5104 1647.89 76.4847 1649.67 74.9451C1651.45 73.3245 1653.84 72.5142 1656.84 72.5142C1659.92 72.5142 1662.27 73.6081 1663.89 75.7959C1662.59 77.0924 1661.94 78.7535 1661.94 80.7793C1661.94 82.724 1662.88 84.3041 1664.74 85.5195C1666.68 86.735 1669.36 87.3427 1672.76 87.3427C1676.25 87.3427 1679 86.6539 1681.03 85.2764C1683.13 83.8179 1684.19 82.0352 1684.19 79.9285C1684.19 77.7407 1683.01 75.7959 1680.66 74.0943C1678.31 72.3117 1675.44 70.6911 1672.03 69.2325C1668.71 67.774 1665.35 66.2344 1661.94 64.6138C1658.54 62.9122 1655.66 60.7649 1653.31 58.172C1650.96 55.579 1649.79 52.6619 1649.79 49.4207C1649.79 44.3159 1652.18 39.9808 1656.96 36.4154C1661.74 32.7691 1667.45 30.9459 1674.1 30.9459C1680.82 30.9459 1686.46 32.2019 1690.99 34.7138C1695.53 37.1447 1697.8 40.3049 1697.8 44.1943Z" fill="#2B2A63"/>
</svg>
