<svg width="227" height="180" viewBox="0 0 227 180" fill="none" xmlns="http://www.w3.org/2000/svg">
<path d="M53.3842 5.10606C69.0614 4.21061 78.9679 14.2984 90.5092 20.3707C94.3796 22.3995 97.5933 25.6315 101.184 28.2199C111.007 35.2995 117.588 35.0897 126.81 27.0586C131.016 23.3928 134.788 19.2374 138.84 15.3898C158.332 -3.20485 178.117 -4.89781 200.683 10.031C222.606 24.5401 231.674 48.6334 222.424 71.1316C219.336 78.659 213.859 85.5987 208.214 91.615C184.335 117.079 160.19 142.32 135.655 167.141C129.618 173.241 122.8 179.103 112.865 179.145C105.027 179.173 98.6972 176.543 93.5273 171.128C69.5923 146.056 45.3779 121.221 22.1555 95.5047C14.5125 87.0398 8.40646 76.6722 3.62784 66.2346C-3.0231 51.6835 -0.41018 37.3703 10.4884 25.3656C22.2254 12.4376 36.4215 4.33653 53.3702 5.09207L53.3842 5.10606Z" fill="#F7B437"/>
</svg>
