<svg width="127" height="137" viewBox="0 0 127 137" fill="none" xmlns="http://www.w3.org/2000/svg">
<path d="M82.5421 117.483C69.7572 129.375 55.8545 136.553 38.822 136.413C19.0508 136.259 5.58128 126.437 1.73883 109.13C-2.70444 89.1501 5.35769 70.9892 23.3683 63.4339C31.3327 60.1039 40.3031 58.4529 48.9661 57.7114C60.0044 56.76 71.1684 57.4735 82.6958 57.4735C82.6958 50.4778 83.2827 44.1817 82.5701 38.0394C81.2427 26.5944 73.963 19.7806 62.3518 20.0045C49.8743 20.2563 37.4387 21.8793 24.3883 22.9427V41.7751H6.07029C6.07029 32.247 5.97248 22.5649 6.19604 12.8968C6.22398 11.8055 7.84482 10.1965 9.06044 9.76277C28.7478 2.72508 49.0359 -1.76617 69.9249 0.794261C91.6383 3.45263 104.912 19.3889 105.206 41.6632C105.513 64.9729 105.303 88.2826 105.303 111.592C105.303 113.425 105.303 115.258 105.303 117.749H125.326C128.149 128.13 127.226 130.97 118.06 132.901C110.683 134.454 102.844 134.776 95.313 134.23C87.2509 133.643 84.666 129.571 82.5421 117.455V117.483ZM82.2487 74.8229C70.6375 74.8229 59.0403 74.4311 47.471 74.9628C39.9677 75.2986 32.7858 77.6072 27.602 83.7634C22.0968 90.2974 21.7056 97.6989 24.1368 105.478C26.0511 111.606 30.2848 115.412 36.5724 116.293C50.5729 118.252 61.6951 112.264 72.1885 103.631C81.3684 96.0759 85.3087 87.1633 82.2487 74.8089V74.8229Z" fill="#2D2C65"/>
</svg>
