<svg width="116" height="138" viewBox="0 0 116 138" fill="none" xmlns="http://www.w3.org/2000/svg">
<path d="M115.32 73.9895H23.6324C22.4307 103.343 44.6053 122.218 73.8638 116.467C83.6726 114.537 93.0062 110.171 103.36 106.645C105.637 110.045 108.697 114.621 112.316 120.021C107.077 123.393 102.48 126.947 97.4075 129.521C82.1495 137.287 65.7596 138.7 49.1463 136.181C30.5907 133.369 16.9256 123.057 8.97516 106.114C-2.56617 81.5309 -2.74774 56.4303 9.0451 31.9732C21.2431 6.67676 45.7091 -3.74685 75.4008 2.42337C98.3297 7.18045 113.923 27.2582 115.279 54.0657C115.6 60.3199 115.32 66.616 115.32 73.9895ZM92.6988 55.199C92.1958 33.4563 79.0615 20.0246 59.1087 20.5982C41.1679 21.1159 24.6663 37.9196 25.1973 55.199H92.6988Z" fill="#2D2C65"/>
</svg>
