<svg width="153" height="197" viewBox="0 0 153 197" fill="none" xmlns="http://www.w3.org/2000/svg">
<path d="M42.7776 179.188H65.1059V195.894H0.398926V179.062H20.1282V16.8597H0.524631V0H42.596V77.2466C45.2787 76.0993 46.9835 75.2319 48.7859 74.6303C60.8442 70.6287 72.6789 64.7523 85.0586 63.1293C113.283 59.4216 128.415 72.6015 129.855 101.326C131.014 124.594 130.553 147.931 130.791 171.241C130.819 173.997 130.791 176.768 130.791 180.154H151.037C153.692 190.661 152.867 193.333 143.59 195.264C135.989 196.845 127.926 197.055 120.144 196.565C113.353 196.132 109.301 191.263 108.924 184.351C108.477 176.208 108.546 168.051 108.449 159.894C108.211 141.02 108.519 122.117 107.624 103.271C106.8 85.9353 97.3406 78.6458 80.4897 83.0111C68.6968 86.0613 57.5048 91.5599 46.173 96.275C44.678 96.8906 42.9314 99.2412 42.9174 100.808C42.7078 124.356 42.7637 147.903 42.7637 171.451C42.7637 173.731 42.7637 176.012 42.7637 179.188H42.7776Z" fill="#313067"/>
</svg>
