<svg width="195" height="187" viewBox="0 0 195 187" fill="none" xmlns="http://www.w3.org/2000/svg">
<path d="M102.291 115.475V166.642H132.22V186.076H54.6027V166.865H79.1245V20.8229C62.6788 22.4459 46.2192 23.4393 32.3165 33.625C22.2283 41.0125 19.4198 51.4921 21.9488 63.4548C23.4718 70.6464 28.0688 74.3961 34.4822 74.2701C41.7759 74.1302 44.4586 69.3032 45.6882 63.105C46.2611 60.1808 46.6244 57.2006 47.0854 54.1225H67.5832C67.5273 64.756 65.3895 74.3681 59.4372 82.8329C52.5208 92.6828 38.5901 96.6844 24.0307 93.0047C10.0582 89.4788 3.4771 79.1811 1.00395 66.0012C-2.75467 45.9095 4.09189 29.7914 20.6773 17.9407C35.1389 7.615 51.8501 3.76736 69.1062 1.89251C96.5902 -1.08767 124.032 -1.29754 150.748 6.83148C171.441 13.1276 187.943 25.2302 192.666 47.5745C202.195 92.7248 171.805 118.413 139.779 118.609C127.4 118.693 115.006 116.608 102.277 115.475H102.291ZM101.83 20.0814C101.83 44.1886 101.732 67.4423 102.04 90.6821C102.067 92.3051 104.918 94.9635 106.79 95.2992C115.649 96.9502 124.605 98.7132 133.576 99.035C152.69 99.7345 168.004 87.7859 171.274 70.6324C175.144 50.3588 166.705 34.1008 148.079 26.6433C133.59 20.8369 118.304 20.0954 101.83 20.0814Z" fill="#302F66"/>
</svg>
