<svg width="125" height="192" viewBox="0 0 125 192" fill="none" xmlns="http://www.w3.org/2000/svg">
<path d="M53.8992 44.1406H76.1993C77.0656 48.1001 76.912 52.3815 78.8821 55.1239C81.0479 58.132 85.1558 61.448 88.4253 61.448C91.6111 61.448 96.5714 58.076 97.6752 55.0539C102.426 42.0279 99.7012 30.7928 86.9582 25.1122C70.764 17.9067 54.3044 17.9067 38.5852 26.4274C21.7762 35.5358 19.4009 56.1032 34.2398 68.2198C43.322 75.6353 54.0109 81.1339 64.155 87.2062C78.4769 95.7689 93.6232 103.128 107.191 112.727C120.646 122.241 126.04 136.554 123.762 153.232C121.526 169.7 111.145 179.522 96.264 184.363C65.734 194.283 35.4415 193.457 5.79168 180.333C1.78155 178.556 -0.230502 176.374 0.0210045 171.491C0.524017 161.976 0.160696 152.42 0.160696 142.374H18.4648C18.4648 147.705 18.1574 153.232 18.6185 158.674C18.7861 160.703 20.3371 163.697 21.9858 164.341C41.8688 172.106 62.143 173.743 82.6408 166.859C85.8964 165.768 89.0262 164.005 91.8486 162.004C103.823 153.512 105.095 140.024 94.5174 129.782C90.3955 125.795 85.3654 122.576 80.3353 119.778C68.9756 113.454 57.1688 107.913 45.879 101.477C36.8108 96.3146 27.6727 90.9979 19.5406 84.5198C-4.70176 65.1977 -3.1508 30.0512 22.2513 12.2401C44.0345 -3.03851 80.1396 -3.57018 102.272 11.0509C122.365 24.3287 127.143 51.8359 112.71 71.158C101.336 86.3807 72.3429 85.2754 62.6739 68.5976C58.6219 61.6159 57.043 53.193 53.8992 44.1266V44.1406Z" fill="#2E2D65"/>
</svg>
