<svg width="189" height="132" viewBox="0 0 189 132" fill="none" xmlns="http://www.w3.org/2000/svg">
<path d="M14.6335 17.4077H0.395508V0.366172H55.2658V17.2258H37.2272C44.1157 45.9502 50.8225 73.9331 57.5293 101.93C57.9206 102.014 58.2978 102.084 58.689 102.168C66.7652 68.4624 74.8273 34.7711 83.0572 0.380155C89.8618 0.380155 96.5826 0.05835 103.234 0.618007C104.757 0.74393 106.811 3.71012 107.3 5.6969C114.915 36.8698 122.32 68.0986 129.781 99.3135C129.935 99.9711 130.187 100.615 131.696 101.538C138.305 73.7092 144.914 45.8803 151.69 17.3098H134.085V0.701952H188.927V16.4983C188.466 16.8481 188.299 17.0719 188.117 17.0859C183.422 17.6596 177.274 16.5962 174.438 19.1846C171.392 21.9549 171.462 28.1531 170.19 32.8682C161.89 63.8592 153.479 94.8363 145.445 125.897C144.271 130.458 142.413 131.704 137.927 131.69C120.909 131.606 120.867 131.774 116.396 115.11C109.703 90.1911 103.066 65.2444 96.373 40.3257C95.9818 38.8426 95.3251 37.4295 94.3191 34.7151C85.9635 65.818 77.8035 95.5218 70.1605 125.366C68.8191 130.626 66.5695 131.76 61.6512 131.69C45.4989 131.452 45.485 131.634 41.3491 116.299C32.5044 83.5452 23.6738 50.7773 14.6755 17.3937L14.6335 17.4077Z" fill="#2F2E65"/>
</svg>
